<svg version="1.0" xmlns="http://www.w3.org/2000/svg"
 width="240.000000pt" height="240.000000pt" viewBox="0 0 240.000000 240.000000"
 preserveAspectRatio="xMidYMid meet">
<g transform="translate(0.000000,240.000000) scale(0.100000,-0.100000)"
fill="#000000" stroke="none">
<path d="M1025 2385 c-397 -62 -724 -302 -900 -660 -165 -336 -165 -714 0
-1050 230 -470 737 -738 1245 -660 190 29 351 91 501 192 378 256 583 719 514
1163 -21 141 -50 233 -110 355 -230 470 -742 740 -1250 660z m331 -400 c12 -8
26 -27 32 -42 9 -21 132 -648 132 -669 0 -3 13 2 30 11 37 19 354 22 395 3 47
-21 67 -82 43 -133 -20 -45 -55 -55 -190 -55 l-123 0 -44 -129 c-43 -129 -63
-162 -108 -175 -36 -11 -79 18 -97 66 -9 24 -38 144 -65 268 -27 124 -51 218
-54 210 -3 -8 -29 -181 -57 -385 -28 -203 -55 -383 -62 -398 -12 -31 -54 -57
-92 -57 -14 0 -39 12 -56 27 -32 29 -37 48 -140 505 l-22 98 -28 -15 c-37 -19
-355 -22 -395 -3 -47 21 -67 82 -43 133 20 45 55 55 191 55 l123 0 43 130 c47
141 68 170 123 170 39 0 65 -15 81 -48 8 -15 34 -118 57 -229 24 -112 46 -203
50 -203 3 0 32 177 64 393 31 215 62 407 67 425 18 54 98 81 145 47z"/>
</g>
</svg>
